<?xml version="1.0" encoding="utf-8"?>
<!-- Generator: Adobe Illustrator 17.0.0, SVG Export Plug-In . SVG Version: 6.00 Build 0)  -->
<!DOCTYPE svg PUBLIC "-//W3C//DTD SVG 1.1//EN" "http://www.w3.org/Graphics/SVG/1.1/DTD/svg11.dtd">
<svg version="1.1" id="Layer_1" xmlns="http://www.w3.org/2000/svg" xmlns:xlink="http://www.w3.org/1999/xlink" x="0px" y="0px"
	 width="532.606px" height="194.608px" viewBox="0 0 532.606 194.608" enable-background="new 0 0 532.606 194.608"
	 xml:space="preserve">
<g>
	<path fill="#FFFFFF" d="M216.489,116.519c5.513,4.339,11.818,7.019,17.433,7.019c4.85,0,8.411-2.17,9.129-6.38
		c0.437-2.554-0.642-4.467-4.591-5.999l-9.811-3.828c-11.232-4.466-15.544-11.357-13.453-23.607
		c2.723-15.951,16.532-28.075,36.439-28.075c10.464,0,20.619,2.554,26.072,5.743l-10.506,21.184
		c-5.494-3.7-12.226-6.126-18.096-6.126c-4.85,0-7.772,2.17-8.36,5.615c-0.479,2.808,0.619,4.594,3.381,5.615l10,4.211
		c12.994,5.359,17.368,12.634,15.429,23.99c-2.853,16.718-16.429,28.968-36.081,28.968c-11.229,0-21.594-3.573-26.474-6.381
		L216.489,116.519z"/>
	<path fill="#FFFFFF" d="M268.972,143.572l15.465-90.603h25.012l-4.857,28.457c4.16-3.445,10.039-5.742,16.803-5.742
		c13.909,0,17.848,9.825,15.104,25.904l-3.071,17.993c-0.501,2.935,0.345,3.956,2.259,3.956c1.404,0,3.15-0.511,4.557-1.276
		l-3.015,19.907c-3.431,1.403-8.37,2.68-15.261,2.68c-12.25,0-17.016-4.977-14.794-17.993l3.398-19.906
		c0.98-5.743-0.968-7.785-3.903-7.785c-2.553,0-4.239,1.659-5.692,3.445l-6.991,40.963H268.972z"/>
	<path fill="#FFFFFF" d="M376.721,76.833l-7.297,42.749c-0.501,2.935,0.218,3.956,2.259,3.956c1.404,0,3.022-0.511,4.43-1.276
		l-2.888,19.907c-3.43,1.403-8.369,2.68-15.261,2.68c-12.25,0-17.143-4.977-14.921-17.993l8.539-50.022H376.721z M369.073,48.375
		c7.912,0,12.516,2.936,11.121,11.103c-1.394,8.167-6.999,11.102-14.911,11.102c-7.911,0-12.771-2.935-11.377-11.102
		C355.3,51.31,361.162,48.375,369.073,48.375z"/>
	<path fill="#FFFFFF" d="M410.02,113.584c-0.85,4.978-0.352,8.039,2.711,8.039c2.936,0,5.266-3.189,6.29-9.188
		c2.2-12.889,2.507-25.904,0.973-35.603h25.649c0.548,6.508,0.757,23.225-1.639,37.262c-3.181,18.631-15.459,30.754-35.493,30.754
		c-19.907,0-27.097-10.208-24.178-27.309l2.81-16.461c0.501-2.936-0.091-3.957-2.133-3.957c-1.148,0-3.276,0.511-4.812,1.276
		l3.037-20.034c3.707-1.531,9.645-2.68,16.536-2.68c10.208,0,15.824,5.231,13.211,20.544L410.02,113.584z"/>
	<path fill="#FFFFFF" d="M510.804,118.306c-0.479,2.807-0.639,5.231,1.403,5.231s3.576-0.767,5.238-1.531l-2.931,20.162
		c-3.686,1.403-9.901,2.68-16.537,2.68c-7.019,0-12.16-1.276-13.557-8.04c-4.34,5.232-10.539,7.912-17.558,7.912
		c-14.93,0-22.858-11.867-19.024-34.326c3.812-22.333,15.622-34.71,30.936-34.71c5.359,0,10.542,1.786,13.141,5.997l0.828-4.849
		h25.14L510.804,118.306z M483.302,97.76c-5.232,0-8.59,4.722-9.94,12.634c-1.329,7.783,0.566,12.377,5.671,12.377
		c2.297,0,4.705-1.403,6.392-3.062l3.289-19.27C487.783,99.164,485.726,97.76,483.302,97.76z"/>
</g>
<circle fill="none" stroke="#FFFFFF" stroke-width="6" stroke-miterlimit="10" cx="99" cy="95.485" r="88"/>
<g>
	<path fill="#FFFFFF" d="M100.728,60.768c7.122,12.215,14.145,23.969,20.875,35.889c6.801,12.047,6.247,23.988-1.112,31.902
		c-7.388,7.944-23.356,9.774-33.619,3.852c-9.943-5.737-14.049-17.558-9.71-29.333c1.783-4.839,4.377-9.415,6.928-13.927
		c2.762-4.886,5.999-9.5,8.849-14.338C95.661,70.19,98.153,65.432,100.728,60.768z"/>
	<path fill="#FFFFFF" d="M70.234,64.774c0.335,0.183,0.962,0.37,1.375,0.776c4.148,4.077,9.544,7.536,12.053,12.461
		c3.01,5.906-3.704,10.101-6.2,14.896c-6.509,12.509-8.733,24.625,0.484,36.868c-15.841,2.421-28.634-11.651-24.692-27.304
		c1.547-6.142,4.836-11.863,7.498-17.7C63.75,78.199,66.934,71.712,70.234,64.774z"/>
	<path fill="#FFFFFF" d="M127.924,64.836c4.479,8.887,8.608,17.19,12.839,25.442c4.412,8.606,6.849,17.366,2.861,26.868
		c-3.482,8.296-9.807,12.362-19.612,13.241c10.821-15.359,5.577-28.808-2.903-42.079c-7.275-11.385-7.167-11.466,2.888-20.314
		C125.375,66.781,126.859,65.689,127.924,64.836z"/>
	<path fill="#FFFFFF" d="M59.077,80.087c-6.614,11.918-12.88,22.761-9.173,36.152c-10.116-12.243-2.293-26.896-6.844-41.427
		C49.066,76.789,53.725,78.324,59.077,80.087z"/>
	<path fill="#FFFFFF" d="M139.349,80.05c5.521-1.816,10.111-3.325,16.051-5.279c-4.33,14.076,2.686,28.144-6.226,40.402
		C151.808,102.119,145.741,91.51,139.349,80.05z"/>
</g>
</svg>
