<?xml version="1.0" encoding="UTF-8" standalone="no"?>
<svg width="118px" height="117px" viewBox="0 0 118 117" version="1.1" xmlns="http://www.w3.org/2000/svg" xmlns:xlink="http://www.w3.org/1999/xlink" xmlns:sketch="http://www.bohemiancoding.com/sketch/ns">
    <!-- Generator: Sketch 3.3.2 (12043) - http://www.bohemiancoding.com/sketch -->
    <title>Group Copy</title>
    <desc>Created with Sketch.</desc>
    <defs></defs>
    <g id="Jornal-Meio-Norte" stroke="none" stroke-width="1" fill="none" fill-rule="evenodd" sketch:type="MSPage">
        <g id="Send-Text-with-Image" sketch:type="MSArtboardGroup" transform="translate(-312.000000, -507.000000)" fill="#CCCCCC">
            <g id="Tem-uma-imagem?-+-Rectangle-76-+-Group-Copy" sketch:type="MSLayerGroup" transform="translate(-40.000000, 327.000000)">
                <g id="Group-Copy" transform="translate(351.250000, 180.750000)" sketch:type="MSShapeGroup">
                    <path d="M87.8115385,62.5923077 C87.8115385,56.6673077 82.95,51.9576923 77.1769231,51.9576923 C71.2519231,51.9576923 66.5423077,56.6673077 66.5423077,62.5923077 C66.5423077,68.5173077 71.2519231,73.2269231 77.1769231,73.2269231 C83.1019231,73.2269231 87.8115385,68.6692308 87.8115385,62.5923077 L87.8115385,62.5923077 Z M72.6192308,62.5923077 C72.6192308,60.0096154 74.5942308,58.0346154 77.1769231,58.0346154 C79.7596154,58.0346154 81.7346154,60.0096154 81.7346154,62.5923077 C81.7346154,65.0230769 79.6076923,67.15 77.1769231,67.15 C74.7461538,67.15 72.6192308,65.0230769 72.6192308,62.5923077 L72.6192308,62.5923077 Z" id="Shape"></path>
                    <path d="M115.157692,36.7653846 L40.4115385,36.7653846 L40.4115385,42.8423077 L111.967308,42.8423077 L111.967308,103.763462 L93.1288462,79 C92.5211538,78.2403846 91.6096154,77.7846154 90.6980769,77.7846154 C89.7865385,77.7846154 88.875,78.2403846 88.2673077,79 L75.5057692,95.8634615 L47.5519231,59.25 C46.9442308,58.4903846 46.0326923,58.0346154 45.1211538,58.0346154 C44.2096154,58.0346154 43.2980769,58.4903846 42.6903846,59.25 L8.81153846,103.763462 L8.81153846,42.8423077 L15.6480769,42.8423077 L15.6480769,36.7653846 L5.77307692,36.7653846 C4.10192308,36.7653846 2.73461538,38.1326923 2.73461538,39.8038462 L2.73461538,112.726923 L2.73461538,113.182692 C2.73461538,113.182692 2.73461538,113.182692 2.73461538,113.334615 C2.73461538,113.638462 2.88653846,113.790385 2.88653846,114.094231 C2.88653846,114.094231 2.88653846,114.094231 2.88653846,114.246154 C3.03846154,114.398077 3.03846154,114.55 3.19038462,114.701923 C3.19038462,114.701923 3.34230769,114.701923 3.34230769,114.853846 C3.49423077,115.005769 3.64615385,115.157692 3.95,115.309615 L4.10192308,115.309615 C4.25384615,115.461538 4.40576923,115.461538 4.70961538,115.613462 L4.86153846,115.613462 C5.16538462,115.613462 5.31730769,115.765385 5.62115385,115.765385 L115.005769,115.765385 C116.676923,115.765385 118.044231,114.398077 118.044231,112.726923 C118.196154,112.575 118.196154,112.575 118.196154,112.423077 L118.196154,39.8038462 C118.196154,38.2846154 116.676923,36.7653846 115.157692,36.7653846 L115.157692,36.7653846 Z M11.85,109.688462 L45.2730769,66.0865385 L73.2269231,102.7 L78.5442308,109.688462 L11.85,109.688462 L11.85,109.688462 Z M86.2923077,109.688462 L79.4557692,100.725 L90.85,85.8365385 L108.928846,109.688462 L86.2923077,109.688462 L86.2923077,109.688462 Z" id="Shape"></path>
                    <path d="M53.6288462,23.8519231 L30.8403846,1.06346154 C30.6884615,0.911538462 30.5365385,0.759615385 30.2326923,0.607692308 C30.0807692,0.607692308 30.0807692,0.455769231 29.9288462,0.455769231 C29.7769231,0.455769231 29.625,0.303846154 29.4730769,0.303846154 C29.3211538,0.303846154 29.1692308,0.303846154 29.1692308,0.151923077 C29.0173077,0.151923077 29.0173077,0 28.8653846,0 L28.1057692,0 L28.1057692,0 L27.3461538,0 C27.1942308,0 27.1942308,0 27.0423077,0.151923077 C26.8903846,0.151923077 26.7384615,0.151923077 26.5865385,0.303846154 C26.4346154,0.303846154 26.2826923,0.455769231 26.2826923,0.455769231 C26.1307692,0.455769231 26.1307692,0.607692308 25.9788462,0.607692308 C25.8269231,0.759615385 25.5230769,0.911538462 25.3711538,1.06346154 L2.58269231,23.8519231 C1.06346154,25.3711538 1.06346154,27.8019231 2.58269231,29.1692308 C4.10192308,30.6884615 6.53269231,30.6884615 7.9,29.1692308 L24.3076923,12.9134615 L24.3076923,30.0807692 L24.3076923,32.9673077 L24.3076923,58.4903846 C24.3076923,60.6173077 25.9788462,62.2884615 28.1057692,62.2884615 C30.2326923,62.2884615 31.9038462,60.6173077 31.9038462,58.4903846 L31.9038462,33.1192308 L31.9038462,30.2326923 L31.9038462,12.9134615 L48.1596154,29.1692308 C48.9192308,29.9288462 49.8307692,30.2326923 50.8942308,30.2326923 C51.9576923,30.2326923 52.8692308,29.9288462 53.6288462,29.1692308 C54.9961538,27.8019231 54.9961538,25.3711538 53.6288462,23.8519231 L53.6288462,23.8519231 Z" id="Shape"></path>
                </g>
            </g>
        </g>
    </g>
</svg>