<?xml version="1.0" encoding="UTF-8" standalone="no"?>
<svg width="49px" height="48px" viewBox="0 0 49 48" version="1.1" xmlns="http://www.w3.org/2000/svg" xmlns:xlink="http://www.w3.org/1999/xlink" xmlns:sketch="http://www.bohemiancoding.com/sketch/ns">
    <!-- Generator: Sketch 3.3.2 (12043) - http://www.bohemiancoding.com/sketch -->
    <title>Shape + Shape</title>
    <desc>Created with Sketch.</desc>
    <defs></defs>
    <g id="Sistema-Meio-Norte-(app)" stroke="none" stroke-width="1" fill="none" fill-rule="evenodd" sketch:type="MSPage">
        <g id="Menu-(navigation)" sketch:type="MSArtboardGroup" transform="translate(-56.000000, -285.000000)" fill="#666666">
            <g id="Shape-+-Shape" sketch:type="MSLayerGroup" transform="translate(56.000000, 285.941323)">
                <path d="M41.0615917,16.0271118 L41.0615917,43.0282014 C41.0615917,43.5896607 40.5648789,44.0490365 39.9577855,44.0490365 L3.25622837,44.0490365 C2.64913495,44.0490365 2.15242215,43.5896607 2.15242215,43.0282014 L2.15242215,8.11563941 C2.15242215,7.55418008 2.64913495,7.09480426 3.25622837,7.09480426 L31.4032872,7.09480426 L33.5557093,5.10417573 L3.25622837,5.10417573 C1.49013841,5.10417573 0,6.43126142 0,8.11563941 L0,43.0792432 C0,44.7125794 1.4349481,46.0907068 3.25622837,46.0907068 L39.9577855,46.0907068 C41.7238754,46.0907068 43.2140138,44.7636211 43.2140138,43.0792432 L43.2140138,14.0364833 L41.0615917,16.0271118 L41.0615917,16.0271118 Z" id="Shape" sketch:type="MSShapeGroup"></path>
                <path d="M48.0200434,4.28750761 L43.7151991,0.306250544 C43.2736766,-0.102083515 42.6113929,-0.102083515 42.1698704,0.306250544 L17.3342302,23.2750413 C17.2790399,23.3771248 17.2238496,23.4281666 17.113469,23.5302501 L13.9124309,30.5229709 C13.6916697,30.9313049 13.8020503,31.3906807 14.1331922,31.6969313 C14.464334,32.0031818 14.9058565,32.1052653 15.4025693,31.9010983 L22.963642,28.9406764 C23.0740226,28.8896346 23.1292129,28.8385929 23.2395935,28.7365094 L48.0752337,5.76771857 C48.4615659,5.30834276 48.4615659,4.69584167 48.0200434,4.28750761 L48.0200434,4.28750761 Z M16.5615659,29.451094 L18.8795589,24.4490017 L21.9702164,27.3073402 L16.5615659,29.451094 L16.5615659,29.451094 Z M43.6048185,7.29897129 L40.514161,4.44063288 L42.997725,2.14375381 L46.0883825,5.00209221 L43.6048185,7.29897129 L43.6048185,7.29897129 Z" id="Shape" sketch:type="MSShapeGroup"></path>
            </g>
        </g>
    </g>
</svg>