<?xml version="1.0" encoding="UTF-8" standalone="no"?>
<svg width="278px" height="278px" viewBox="0 0 278 278" version="1.1" xmlns="http://www.w3.org/2000/svg" xmlns:xlink="http://www.w3.org/1999/xlink" xmlns:sketch="http://www.bohemiancoding.com/sketch/ns">
    <!-- Generator: Sketch 3.3.2 (12043) - http://www.bohemiancoding.com/sketch -->
    <title>Oval 61 + Shape</title>
    <desc>Created with Sketch.</desc>
    <defs></defs>
    <g id="Sistema-Meio-Norte-(app)" stroke="none" stroke-width="1" fill="none" fill-rule="evenodd" sketch:type="MSPage">
        <g id="Report-Error-(Ok)" sketch:type="MSArtboardGroup" transform="translate(-225.000000, -207.000000)">
            <g id="Oval-61-+-Shape" sketch:type="MSLayerGroup" transform="translate(225.000000, 207.000000)">
                <ellipse id="Oval-61" fill="#FFD760" sketch:type="MSShapeGroup" cx="139" cy="138.817675" rx="138.5" ry="138.5"></ellipse>
                <path d="M140.5,57 C96.1117037,57 60,93.1117037 60,137.5 C60,181.888296 96.1117037,218 140.5,218 C184.888296,218 221,181.888296 221,137.5 C221,93.1117037 184.888296,57 140.5,57 L140.5,57 Z M140.5,212.037037 C99.4002778,212.037037 65.962963,178.599722 65.962963,137.5 C65.962963,96.4002778 99.4002778,62.962963 140.5,62.962963 C181.599722,62.962963 215.037037,96.4002778 215.037037,137.5 C215.037037,178.599722 181.599722,212.037037 140.5,212.037037 L140.5,212.037037 Z M188.314019,154.580907 C186.814333,153.930944 185.046315,154.643519 184.405296,156.158111 C179.420259,167.884278 170.171704,176.96587 158.353111,181.736241 C146.534519,186.512574 133.571037,186.387352 121.841889,181.408278 C120.339222,180.761296 118.577167,181.470889 117.933167,182.985481 C117.286185,184.500074 117.995778,186.250204 119.51037,186.894204 C126.257463,189.762389 133.368296,191.196481 140.488074,191.196481 C147.285852,191.196481 154.089593,189.890593 160.583259,187.26987 C173.877685,181.903204 184.283056,171.679704 189.888241,158.48963 C190.538204,156.972056 189.831593,155.221926 188.314019,154.580907 L188.314019,154.580907 Z M155.407407,122.592593 L173.296296,122.592593 C174.945056,122.592593 176.277778,121.25987 176.277778,119.611111 C176.277778,117.962352 174.945056,116.62963 173.296296,116.62963 L155.407407,116.62963 C153.758648,116.62963 152.425926,117.962352 152.425926,119.611111 C152.425926,121.25987 153.758648,122.592593 155.407407,122.592593 L155.407407,122.592593 Z M119.62963,128.555556 L119.62963,110.666667 C119.62963,109.017907 118.296907,107.685185 116.648148,107.685185 C114.999389,107.685185 113.666667,109.017907 113.666667,110.666667 L113.666667,128.555556 C113.666667,130.204315 114.999389,131.537037 116.648148,131.537037 C118.296907,131.537037 119.62963,130.204315 119.62963,128.555556 L119.62963,128.555556 Z" id="Shape" fill="#FFFFFF" sketch:type="MSShapeGroup"></path>
            </g>
        </g>
    </g>
</svg>