<?xml version="1.0" encoding="UTF-8" standalone="no"?>
<svg width="51px" height="42px" viewBox="0 0 51 42" version="1.1" xmlns="http://www.w3.org/2000/svg" xmlns:xlink="http://www.w3.org/1999/xlink" xmlns:sketch="http://www.bohemiancoding.com/sketch/ns">
    <!-- Generator: Sketch 3.3.2 (12043) - http://www.bohemiancoding.com/sketch -->
    <title>noun_70970_cc (1)</title>
    <desc>Created with Sketch.</desc>
    <defs></defs>
    <g id="Sistema-Meio-Norte-(app)" stroke="none" stroke-width="1" fill="none" fill-rule="evenodd" sketch:type="MSPage">
        <g id="Menu-(navigation)" sketch:type="MSArtboardGroup" transform="translate(-56.000000, -404.000000)" fill="#666666">
            <g id="noun_70970_cc-(1)" sketch:type="MSLayerGroup" transform="translate(56.000000, 404.021788)">
                <path d="M25.3875433,12.4206029 C24.7647022,12.4206029 24.259208,12.8843054 24.259208,13.4556531 L24.259208,26.3937811 C24.259208,26.9651288 24.7647022,27.4288313 25.3875433,27.4288313 C26.0103843,27.4288313 26.5158785,26.9651288 26.5158785,26.3937811 L26.5158785,13.4556531 C26.5158785,12.8843054 26.0103843,12.4206029 25.3875433,12.4206029 L25.3875433,12.4206029 Z" id="Shape" sketch:type="MSShapeGroup"></path>
                <path d="M25.3875433,30.0164569 C24.7647022,30.0164569 24.259208,30.4801594 24.259208,31.0515072 L24.259208,33.1216076 C24.259208,33.6929554 24.7647022,34.1566579 25.3875433,34.1566579 C26.0103843,34.1566579 26.5158785,33.6929554 26.5158785,33.1216076 L26.5158785,31.0515072 C26.5158785,30.4801594 26.0103843,30.0164569 25.3875433,30.0164569 L25.3875433,30.0164569 Z" id="Shape" sketch:type="MSShapeGroup"></path>
                <path d="M28.442511,2.01317271 C27.8044374,0.99985853 26.6625621,0.395389191 25.3875433,0.395389191 C24.1125244,0.395389191 22.9706491,0.99985853 22.3325755,2.01317271 L0.532010073,36.6506114 C-0.105499346,37.6639256 -0.105499346,38.8221468 0.532010073,39.8349435 C1.16951949,40.8482577 2.31195894,41.4020095 3.58697778,41.4020095 L47.1881087,41.4020095 C48.4631276,41.4020095 49.605567,40.8482577 50.2430764,39.835461 C50.8805859,38.8221468 50.8805859,37.6385669 50.2430764,36.6252527 L28.442511,2.01317271 L28.442511,2.01317271 Z M48.2887998,38.8004108 C48.1782229,38.9753343 47.8498774,39.3319091 47.1881087,39.3319091 L3.58697778,39.3319091 C2.92520915,39.3319091 2.59686359,38.9753343 2.48628674,38.8004108 C2.37570988,38.6254873 2.15512034,38.186626 2.48628674,37.6603029 L24.2874164,3.03528482 C24.6180186,2.50896178 25.1675179,2.45876184 25.3875433,2.45876184 C25.6075686,2.45876184 26.1570679,2.51879476 26.4882343,3.04460028 L48.2887998,37.6582328 C48.6199662,38.1845559 48.3988125,38.6249697 48.2887998,38.8004108 L48.2887998,38.8004108 Z" id="Shape" sketch:type="MSShapeGroup"></path>
            </g>
        </g>
    </g>
</svg>