<?xml version="1.0" encoding="UTF-8" standalone="no"?>
<svg width="278px" height="278px" viewBox="0 0 278 278" version="1.1" xmlns="http://www.w3.org/2000/svg" xmlns:xlink="http://www.w3.org/1999/xlink" xmlns:sketch="http://www.bohemiancoding.com/sketch/ns">
    <!-- Generator: Sketch 3.3.2 (12043) - http://www.bohemiancoding.com/sketch -->
    <title>Oval 61 + Shape</title>
    <desc>Created with Sketch.</desc>
    <defs></defs>
    <g id="Sistema-Meio-Norte-(app)" stroke="none" stroke-width="1" fill="none" fill-rule="evenodd" sketch:type="MSPage">
        <g id="Email-(Ok)" sketch:type="MSArtboardGroup" transform="translate(-225.000000, -207.000000)">
            <g id="Oval-61-+-Shape" sketch:type="MSLayerGroup" transform="translate(225.000000, 207.000000)">
                <ellipse id="Oval-61" fill="#7CC4F9" sketch:type="MSShapeGroup" cx="139" cy="138.817675" rx="138.5" ry="138.5"></ellipse>
                <path d="M45.8659091,111.617174 C43.9443182,111.617174 42.3989545,113.165826 42.3989545,115.082435 C42.3989545,116.999043 43.9483636,118.547696 45.8659091,118.547696 L79.3946364,118.547696 C81.3162273,118.547696 82.8615909,116.999043 82.8615909,115.082435 C82.8615909,113.161783 81.3121818,111.617174 79.3946364,111.617174 L45.8659091,111.617174 L45.8659091,111.617174 Z M57.4278182,123.169391 C55.5062273,123.169391 53.9608636,124.718043 53.9608636,126.638696 C53.9608636,128.555304 55.5102727,130.103957 57.4278182,130.103957 L79.3946364,130.103957 C81.3162273,130.103957 82.8615909,128.555304 82.8615909,126.638696 C82.8615909,124.718043 81.3121818,123.169391 79.3946364,123.169391 L57.4278182,123.169391 L57.4278182,123.169391 Z M68.9897273,134.725652 C67.0681364,134.725652 65.5227727,136.274304 65.5227727,138.194957 C65.5227727,140.111565 67.0721818,141.660217 68.9897273,141.660217 L79.3946364,141.660217 C81.3162273,141.660217 82.8615909,140.111565 82.8615909,138.194957 C82.8615909,136.274304 81.3121818,134.725652 79.3946364,134.725652 L68.9897273,134.725652 L68.9897273,134.725652 Z M110.038955,114.665957 C108.432909,113.614652 106.361636,114.067522 105.402864,115.660652 C104.444091,117.257826 104.965955,119.392783 106.572,120.444087 L150.481364,149.007217 C151.2055,149.484348 152.030773,149.654174 152.803455,149.549043 C153.576136,149.654174 154.401409,149.484348 155.1215,149.007217 L197.877909,120.444087 C199.479909,119.392783 200.001773,117.253783 199.043,115.660652 C198.084227,114.067522 196.012955,113.614652 194.406909,114.665957 L152.799409,142.481043 L110.038955,114.665957 L110.038955,114.665957 Z M200.495318,107.003565 C204.540773,106.716478 208.873455,111.047043 208.873455,114.516348 L208.873455,174.315348 C208.873455,177.489478 204.540773,182.115217 201.069773,182.115217 L104.245864,182.115217 C100.782955,182.115217 96.7334545,177.784652 96.7334545,174.606478 L96.7334545,114.520391 C96.1549545,111.342217 101.935909,106.142304 104.824364,107.007609 L200.495318,107.007609 L200.495318,107.003565 Z M201.648273,100.073043 L103.671409,100.073043 C97.5991818,100.073043 90.0867727,107.294696 89.7955,113.359913 L89.7955,175.75887 C89.7955,181.249913 97.8864091,189.33687 103.380136,189.049783 L201.939545,189.049783 C208.007727,189.049783 215.520136,181.541043 215.811409,175.184696 L215.811409,113.651043 C215.811409,107.581783 208.586227,100.073043 201.648273,100.073043 L201.648273,100.073043 Z" id="Shape" fill="#FFFFFF" sketch:type="MSShapeGroup"></path>
            </g>
        </g>
    </g>
</svg>