<?xml version="1.0" encoding="UTF-8" standalone="no"?>
<svg width="278px" height="278px" viewBox="0 0 278 278" version="1.1" xmlns="http://www.w3.org/2000/svg" xmlns:xlink="http://www.w3.org/1999/xlink" xmlns:sketch="http://www.bohemiancoding.com/sketch/ns">
    <!-- Generator: Sketch 3.3.2 (12043) - http://www.bohemiancoding.com/sketch -->
    <title>Oval 61 + Group</title>
    <desc>Created with Sketch.</desc>
    <defs></defs>
    <g id="Sistema-Meio-Norte-(app)" stroke="none" stroke-width="1" fill="none" fill-rule="evenodd" sketch:type="MSPage">
        <g id="Register-(Ok)" sketch:type="MSArtboardGroup" transform="translate(-225.000000, -207.000000)">
            <g id="Oval-61-+-Group" sketch:type="MSLayerGroup" transform="translate(225.000000, 207.000000)">
                <path d="M139,277.317675 C215.491438,277.317675 277.5,215.309113 277.5,138.817675 C277.5,62.3262372 215.491438,0.317675054 139,0.317675054 C62.5085622,0.317675054 0.5,62.3262372 0.5,138.817675 C0.5,215.309113 62.5085622,277.317675 139,277.317675 Z" id="Oval-61" fill="#84D672" sketch:type="MSShapeGroup"></path>
                <g id="Group" transform="translate(63.000000, 96.000000)" fill="#FFFFFF" sketch:type="MSShapeGroup">
                    <path d="M142.648997,0.832107541 C141.373759,0.859026332 140.159313,1.37874179 139.26358,2.28087803 L53.01358,87.9653705 L8.84691333,44.0882551 C7.62575709,42.7824916 5.78406089,42.2438729 4.04552697,42.6840514 C2.30699304,43.1242299 0.949457355,44.4728605 0.506369236,46.1999931 C0.0632811168,47.9271258 0.605450695,49.7567466 1.91983017,50.9698984 L49.57608,98.3137311 C51.503919,100.198134 54.603833,100.175164 56.5031633,98.2624033 L146.190663,9.16286902 C147.615922,7.76241087 148.039098,5.6408925 147.259129,3.80631042 C146.47916,1.97172833 144.653271,0.793896822 142.648997,0.832438689 L142.648997,0.832107541 Z" id="Shape"></path>
                </g>
            </g>
        </g>
    </g>
</svg>