<?xml version="1.0" encoding="UTF-8" standalone="no"?>
<svg width="48px" height="35px" viewBox="0 0 48 35" version="1.1" xmlns="http://www.w3.org/2000/svg" xmlns:xlink="http://www.w3.org/1999/xlink" xmlns:sketch="http://www.bohemiancoding.com/sketch/ns">
    <!-- Generator: Sketch 3.3.2 (12043) - http://www.bohemiancoding.com/sketch -->
    <title>Shape</title>
    <desc>Created with Sketch.</desc>
    <defs></defs>
    <g id="Sistema-Meio-Norte-(app)" stroke="none" stroke-width="1" fill="none" fill-rule="evenodd" sketch:type="MSPage">
        <g id="Dashboard" sketch:type="MSArtboardGroup" transform="translate(-31.000000, -96.000000)" fill="#FFFFFF">
            <path d="M77.3636364,127.090909 L32.6363636,127.090909 C31.7325455,127.090909 31,127.823455 31,128.727273 C31,129.631091 31.7325455,130.363636 32.6363636,130.363636 L77.3636364,130.363636 C78.2674545,130.363636 79,129.631091 79,128.727273 C79,127.823455 78.2674545,127.090909 77.3636364,127.090909 L77.3636364,127.090909 Z M77.3636364,111.818182 L32.6363636,111.818182 C31.7325455,111.818182 31,112.550727 31,113.454545 C31,114.358364 31.7325455,115.090909 32.6363636,115.090909 L77.3636364,115.090909 C78.2674545,115.090909 79,114.358364 79,113.454545 C79,112.550727 78.2674545,111.818182 77.3636364,111.818182 L77.3636364,111.818182 Z M32.6363636,99.2727273 L77.3636364,99.2727273 C78.2674545,99.2727273 79,98.5401818 79,97.6363636 C79,96.7325455 78.2674545,96 77.3636364,96 L32.6363636,96 C31.7325455,96 31,96.7325455 31,97.6363636 C31,98.5401818 31.7325455,99.2727273 32.6363636,99.2727273 L32.6363636,99.2727273 Z" id="Shape" sketch:type="MSShapeGroup"></path>
        </g>
    </g>
</svg>