<?xml version="1.0" encoding="UTF-8" standalone="no"?>
<svg width="48px" height="42px" viewBox="0 0 48 42" version="1.1" xmlns="http://www.w3.org/2000/svg" xmlns:xlink="http://www.w3.org/1999/xlink" xmlns:sketch="http://www.bohemiancoding.com/sketch/ns">
    <!-- Generator: Sketch 3.3.2 (12043) - http://www.bohemiancoding.com/sketch -->
    <title>Shape</title>
    <desc>Created with Sketch.</desc>
    <defs></defs>
    <g id="Jornal-Meio-Norte" stroke="none" stroke-width="1" fill="none" fill-rule="evenodd" sketch:type="MSPage">
        <g id="Coluna" sketch:type="MSArtboardGroup" transform="translate(-678.000000, -81.000000)" fill="#FFFFFF">
            <path d="M717.157895,97.5454545 C717.157895,98.2454545 716.589474,98.8181818 715.894737,98.8181818 L688.105263,98.8181818 C687.410526,98.8181818 686.842105,98.2454545 686.842105,97.5454545 C686.842105,96.8454545 687.410526,96.2727273 688.105263,96.2727273 L715.894737,96.2727273 C716.589474,96.2727273 717.157895,96.8454545 717.157895,97.5454545 L717.157895,97.5454545 Z M708.189474,103.272727 L688.105263,103.272727 C687.410526,103.272727 686.842105,103.845455 686.842105,104.545455 C686.842105,105.245455 687.410526,105.818182 688.105263,105.818182 L708.189474,105.818182 C708.884211,105.818182 709.452632,105.245455 709.452632,104.545455 C709.452632,103.845455 708.884211,103.272727 708.189474,103.272727 L708.189474,103.272727 Z M715.894737,89.2727273 L688.105263,89.2727273 C687.410526,89.2727273 686.842105,89.8454545 686.842105,90.5454545 C686.842105,91.2454545 687.410526,91.8181818 688.105263,91.8181818 L715.894737,91.8181818 C716.589474,91.8181818 717.157895,91.2454545 717.157895,90.5454545 C717.157895,89.8454545 716.589474,89.2727273 715.894737,89.2727273 L715.894737,89.2727273 Z M726,82.2727273 L726,112.818182 C726,113.518182 725.431579,114.090909 724.736842,114.090909 L700.105263,114.090909 L691.515789,122.618182 C691.263158,122.872727 690.947368,123 690.631579,123 C690.442105,123 690.315789,123 690.126316,122.872727 C689.621053,122.681818 689.368421,122.236364 689.368421,121.727273 L689.368421,114.090909 L679.263158,114.090909 C678.568421,114.090909 678,113.518182 678,112.818182 L678,82.2727273 C678,81.5727273 678.568421,81 679.263158,81 L724.736842,81 C725.431579,81 726,81.5727273 726,82.2727273 L726,82.2727273 Z M723.473684,83.5454545 L680.526316,83.5454545 L680.526316,111.545455 L690.631579,111.545455 C691.326316,111.545455 691.894737,112.118182 691.894737,112.818182 L691.894737,118.672727 L698.715789,111.927273 C698.968421,111.672727 699.284211,111.545455 699.6,111.545455 L723.473684,111.545455 L723.473684,83.5454545 L723.473684,83.5454545 Z" id="Shape" sketch:type="MSShapeGroup"></path>
        </g>
    </g>
</svg>