<?xml version="1.0" encoding="UTF-8" standalone="no"?>
<svg width="44px" height="42px" viewBox="0 0 44 42" version="1.1" xmlns="http://www.w3.org/2000/svg" xmlns:xlink="http://www.w3.org/1999/xlink" xmlns:sketch="http://www.bohemiancoding.com/sketch/ns">
    <!-- Generator: Sketch 3.3.2 (12043) - http://www.bohemiancoding.com/sketch -->
    <title>Group + Group Copy 2</title>
    <desc>Created with Sketch.</desc>
    <defs></defs>
    <g id="Jornal-Meio-Norte" stroke="none" stroke-width="1" fill="none" fill-rule="evenodd" sketch:type="MSPage">
        <g id="Section" sketch:type="MSArtboardGroup" transform="translate(-30.000000, -74.000000)" stroke-linecap="round" stroke-width="2" stroke="#FFFFFF">
            <g id="Group-+-Group-Copy-2" sketch:type="MSLayerGroup" transform="translate(31.000000, 75.000000)">
                <g id="Group" sketch:type="MSShapeGroup">
                    <g id="shape">
                        <path d="M20.9963798,39.1236891 L0,19.5618445 L20.9963798,-3.97903932e-13" id="line" stroke-linejoin="round"></path>
                        <path d="M-2.21211938e-15,19.4285714 L42,19.4285714" id="Line"></path>
                    </g>
                    <g id="shape-copy">
                        <path d="M20.9963798,39.1236891 L0,19.5618445 L20.9963798,-3.97903932e-13" id="line" stroke-linejoin="round"></path>
                        <path d="M-2.21211938e-15,19.4285714 L42,19.4285714" id="Line"></path>
                    </g>
                    <g id="shape-copy-2">
                        <path d="M20.9963798,39.1236891 L0,19.5618445 L20.9963798,-3.97903932e-13" id="line" stroke-linejoin="round"></path>
                        <path d="M-2.21211938e-15,19.4285714 L42,19.4285714" id="Line"></path>
                    </g>
                    <g id="shape-copy-3">
                        <path d="M20.9963798,39.1236891 L0,19.5618445 L20.9963798,-3.97903932e-13" id="line" stroke-linejoin="round"></path>
                        <path d="M-2.21211938e-15,19.4285714 L42,19.4285714" id="Line"></path>
                    </g>
                </g>
                <g id="Group-Copy-2" sketch:type="MSShapeGroup">
                    <g id="shape">
                        <path d="M20.9963798,39.1236891 L0,19.5618445 L20.9963798,-3.97903932e-13" id="line" stroke-linejoin="round"></path>
                        <path d="M-2.21211938e-15,19.4285714 L42,19.4285714" id="Line"></path>
                    </g>
                    <g id="shape-copy">
                        <path d="M20.9963798,39.1236891 L0,19.5618445 L20.9963798,-3.97903932e-13" id="line" stroke-linejoin="round"></path>
                        <path d="M-2.21211938e-15,19.4285714 L42,19.4285714" id="Line"></path>
                    </g>
                    <g id="shape-copy-2">
                        <path d="M20.9963798,39.1236891 L0,19.5618445 L20.9963798,-3.97903932e-13" id="line" stroke-linejoin="round"></path>
                        <path d="M-2.21211938e-15,19.4285714 L42,19.4285714" id="Line"></path>
                    </g>
                    <g id="shape-copy-3">
                        <path d="M20.9963798,39.1236891 L0,19.5618445 L20.9963798,-3.97903932e-13" id="line" stroke-linejoin="round"></path>
                        <path d="M-2.21211938e-15,19.4285714 L42,19.4285714" id="Line"></path>
                    </g>
                </g>
            </g>
        </g>
    </g>
</svg>