<?xml version="1.0" encoding="UTF-8" standalone="no"?>
<svg width="42px" height="47px" viewBox="0 0 42 47" version="1.1" xmlns="http://www.w3.org/2000/svg" xmlns:xlink="http://www.w3.org/1999/xlink" xmlns:sketch="http://www.bohemiancoding.com/sketch/ns">
    <!-- Generator: Sketch 3.3.2 (12043) - http://www.bohemiancoding.com/sketch -->
    <title>share11</title>
    <desc>Created with Sketch.</desc>
    <defs></defs>
    <g id="Jornal-Meio-Norte" stroke="none" stroke-width="1" fill="none" fill-rule="evenodd" sketch:type="MSPage">
        <g id="Foto" sketch:type="MSArtboardGroup" transform="translate(-678.000000, -75.000000)" fill="#FFFFFF">
            <g id="share11" sketch:type="MSLayerGroup" transform="translate(678.000000, 75.000000)">
                <g id="_x37_7_Essential_Icons_58_" sketch:type="MSShapeGroup">
                    <path d="M33.7296296,30.8896 C31.2407407,30.8896 29.0111111,32.0917333 27.6111111,33.9210667 L15.0111111,26.5514667 C15.7888889,24.6176 15.7888889,22.4746667 15.0111111,20.5408 L27.6111111,13.1712 C29.0111111,15.0005333 31.2407407,16.2026667 33.7296296,16.2026667 C38.0333333,16.2026667 41.5074074,12.7008 41.5074074,8.36266667 C41.5074074,4.02453333 38.0333333,0.522666667 33.7296296,0.522666667 C29.4259259,0.522666667 25.9518519,4.02453333 25.9518519,8.36266667 C25.9518519,9.408 26.1592593,10.4533333 26.5222222,11.3418667 L13.9222222,18.7637333 C12.4703704,16.9344 10.2925926,15.7322667 7.8037037,15.7322667 C3.5,15.7322667 0.0259259259,19.2341333 0.0259259259,23.5722667 C0.0259259259,27.9104 3.5,31.4122667 7.8037037,31.4122667 C10.2925926,31.4122667 12.5222222,30.2101333 13.9222222,28.3808 L26.5222222,35.7504 C26.1592593,36.6389333 25.9518519,37.6842667 25.9518519,38.7296 C25.9518519,43.0677333 29.4259259,46.5696 33.7296296,46.5696 C38.0333333,46.5696 41.5074074,43.0677333 41.5074074,38.7296 C41.5074074,34.3914667 38.0333333,30.8896 33.7296296,30.8896 L33.7296296,30.8896 Z M33.7296296,2.6656 C36.8925926,2.6656 39.4333333,5.22666667 39.4333333,8.41493333 C39.4333333,11.6032 36.8925926,14.1642667 33.7296296,14.1642667 C30.5666667,14.1642667 28.0259259,11.6032 28.0259259,8.41493333 C28.0259259,5.22666667 30.5666667,2.6656 33.7296296,2.6656 L33.7296296,2.6656 Z M7.8037037,29.3216 C4.64074074,29.3216 2.1,26.7605333 2.1,23.5722667 C2.1,20.384 4.64074074,17.8229333 7.8037037,17.8229333 C10.9666667,17.8229333 13.5074074,20.384 13.5074074,23.5722667 C13.5074074,26.7605333 10.9666667,29.3216 7.8037037,29.3216 L7.8037037,29.3216 Z M33.7296296,44.4789333 C30.5666667,44.4789333 28.0259259,41.9178667 28.0259259,38.7296 C28.0259259,35.5413333 30.5666667,32.9802667 33.7296296,32.9802667 C36.8925926,32.9802667 39.4333333,35.5413333 39.4333333,38.7296 C39.4333333,41.9178667 36.8925926,44.4789333 33.7296296,44.4789333 L33.7296296,44.4789333 Z" id="Share"></path>
                </g>
            </g>
        </g>
    </g>
</svg>