<?xml version="1.0" encoding="UTF-8" standalone="no"?>
<svg width="96px" height="88px" viewBox="0 0 96 88" version="1.1" xmlns="http://www.w3.org/2000/svg" xmlns:xlink="http://www.w3.org/1999/xlink" xmlns:sketch="http://www.bohemiancoding.com/sketch/ns">
    <!-- Generator: Sketch 3.3.2 (12043) - http://www.bohemiancoding.com/sketch -->
    <title>noun_119520_cc</title>
    <desc>Created with Sketch.</desc>
    <defs></defs>
    <g id="Page-1" stroke="none" stroke-width="1" fill="none" fill-rule="evenodd" sketch:type="MSPage">
        <g id="noun_119520_cc" sketch:type="MSLayerGroup" fill="#CCCCCC">
            <g id="Group" sketch:type="MSShapeGroup">
                <g id="Shape">
                    <path d="M92.98,60.729 C94.623,57.4 95.455,53.85 95.455,50.178 C95.455,43.184 92.421,36.624 86.912,31.709 C81.484,26.865 74.286,24.197 66.642,24.197 C64.409,24.197 62.214,24.426 60.089,24.87 C60.23,25.604 60.333,26.347 60.404,27.096 C62.424,26.664 64.513,26.44 66.641,26.44 C73.734,26.44 80.402,28.905 85.417,33.382 C90.442,37.866 93.21,43.831 93.21,50.178 C93.21,53.504 92.455,56.72 90.968,59.737 C89.642,62.428 87.789,64.849 85.462,66.932 L85.005,67.342 L87.576,83.105 L69.597,73.772 L69.271,73.801 C68.4,73.878 67.515,73.917 66.641,73.917 C59.55,73.917 52.883,71.452 47.867,66.975 C43.899,63.433 41.34,58.968 40.438,54.121 C39.72,54.326 38.992,54.506 38.255,54.66 C39.266,59.944 42.061,64.8 46.373,68.649 C51.801,73.492 58.999,76.16 66.641,76.16 C67.471,76.16 68.311,76.127 69.14,76.063 L90.509,87.156 L87.415,68.186 C89.745,66.006 91.615,63.5 92.98,60.729 L92.98,60.729 Z"></path>
                    <path d="M57.969,24.66 C57.899,23.911 57.795,23.168 57.655,22.434 C56.644,17.15 53.849,12.294 49.537,8.446 C44.108,3.602 36.91,0.935 29.268,0.935 C21.624,0.935 14.426,3.602 8.998,8.447 C3.49,13.363 0.456,19.922 0.456,26.916 C0.456,30.588 1.289,34.138 2.931,37.467 C4.296,40.238 6.167,42.743 8.494,44.923 L5.4,63.893 L26.768,52.8 C27.599,52.864 28.437,52.897 29.268,52.897 C31.501,52.897 33.696,52.668 35.821,52.224 C36.558,52.07 37.286,51.89 38.004,51.685 C42.302,50.458 46.245,48.322 49.537,45.385 C55.045,40.469 58.079,33.91 58.079,26.915 C58.078,26.158 58.04,25.406 57.969,24.66 L57.969,24.66 Z M48.042,43.712 C45.087,46.35 41.558,48.288 37.707,49.436 C36.983,49.652 36.249,49.839 35.505,49.998 C33.486,50.43 31.396,50.654 29.268,50.654 C28.394,50.654 27.509,50.615 26.638,50.538 L26.312,50.509 L8.333,59.842 L10.904,44.079 L10.447,43.669 C8.12,41.586 6.267,39.165 4.941,36.474 C3.453,33.456 2.699,30.24 2.699,26.914 C2.699,20.567 5.467,14.602 10.492,10.118 C15.508,5.641 22.177,3.176 29.268,3.176 C36.359,3.176 43.027,5.641 48.042,10.118 C52.011,13.66 54.568,18.124 55.471,22.972 C55.609,23.713 55.708,24.464 55.768,25.221 C55.812,25.782 55.834,26.346 55.834,26.914 C55.834,33.263 53.067,39.228 48.042,43.712 L48.042,43.712 Z"></path>
                </g>
                <path d="M82,45.813 C82,45.917 81.917,46 81.814,46 L54.186,46 C54.083,46 54,45.917 54,45.813 L54,44.186 C54,44.083 54.083,44 54.186,44 L81.815,44 C81.917,44 82,44.083 82,44.187 L82,45.813 L82,45.813 Z" id="Shape"></path>
                <path d="M82,51.814 C82,51.917 81.917,52 81.814,52 L54.186,52 C54.083,52 54,51.917 54,51.814 L54,50.186 C54,50.083 54.083,50 54.186,50 L81.815,50 C81.917,50 82,50.083 82,50.186 L82,51.814 L82,51.814 Z" id="Shape"></path>
                <path d="M82,57.813 C82,57.917 81.917,58 81.814,58 L54.186,58 C54.083,58 54,57.917 54,57.813 L54,56.186 C54,56.083 54.083,56 54.186,56 L81.815,56 C81.917,56 82,56.083 82,56.187 L82,57.813 L82,57.813 Z" id="Shape"></path>
                <path d="M43,22.777 C43,22.9 42.87,23 42.71,23 L14.29,23 C14.13,23 14,22.9 14,22.777 L14,21.222 C14,21.1 14.13,21 14.29,21 L42.71,21 C42.87,21 43,21.1 43,21.223 L43,22.777 L43,22.777 Z" id="Shape"></path>
                <path d="M43,28.722 C43,28.875 42.87,29 42.71,29 L14.29,29 C14.13,29 14,28.875 14,28.722 L14,27.279 C14,27.125 14.13,27 14.29,27 L42.71,27 C42.87,27 43,27.125 43,27.278 L43,28.722 L43,28.722 Z" id="Shape"></path>
                <path d="M43,34.888 C43,34.95 42.87,35 42.71,35 L14.29,35 C14.13,35 14,34.95 14,34.888 L14,33.112 C14,33.05 14.13,33 14.29,33 L42.71,33 C42.87,33 43,33.05 43,33.112 L43,34.888 L43,34.888 Z" id="Shape"></path>
            </g>
        </g>
    </g>
</svg>