<?xml version="1.0" encoding="UTF-8" standalone="no"?>
<svg width="46px" height="26px" viewBox="0 0 46 26" version="1.1" xmlns="http://www.w3.org/2000/svg" xmlns:xlink="http://www.w3.org/1999/xlink" xmlns:sketch="http://www.bohemiancoding.com/sketch/ns">
    <!-- Generator: Sketch 3.3.2 (12043) - http://www.bohemiancoding.com/sketch -->
    <title>videoplayer5 copy</title>
    <desc>Created with Sketch.</desc>
    <defs></defs>
    <g id="Rede-Meio-Norte" stroke="none" stroke-width="1" fill="none" fill-rule="evenodd" sketch:type="MSPage">
        <g id="Program" sketch:type="MSArtboardGroup" transform="translate(-93.000000, -1271.000000)" fill="#D9D9D9">
            <g id="videoplayer5-copy-+-Shape-Copy" sketch:type="MSLayerGroup" transform="translate(30.000000, 1266.000000)">
                <g id="videoplayer5-copy" transform="translate(63.000000, 5.000000)" sketch:type="MSShapeGroup">
                    <path d="M44.0835056,1.76406125 C42.9231353,1.30438966 41.5878596,1.5582857 40.6995516,2.40786516 L34.7843504,8.06718713 L34.7843504,4.61778249 C34.7843504,2.16133001 32.7022529,0.169273281 30.1340264,0.169273281 L4.65032406,0.169273281 C2.08221237,0.169273281 2.27373675e-13,2.16133001 2.27373675e-13,4.61778249 L2.27373675e-13,20.9895181 C2.27373675e-13,23.4459705 2.08221237,25.4380273 4.65032406,25.4380273 L30.1340264,25.4380273 C32.7022529,25.4380273 34.7843504,23.4459705 34.7843504,20.9895181 L34.7843504,17.5400035 L40.6995516,23.1993255 C41.2940921,23.7677626 42.0877698,24.069889 42.8960324,24.069889 C43.2957998,24.069889 43.6993569,23.9954011 44.0835056,23.8432393 C45.2433017,23.3834578 46,22.3005269 46,21.0990526 L46,4.50813807 C46,3.30666375 45.2433017,2.22373284 44.0835056,1.76406125 L44.0835056,1.76406125 Z M21.8555928,13.9561252 L15.5173113,18.6146946 C15.2469716,18.8137685 14.9201294,18.9155027 14.5916794,18.9155027 C14.3630277,18.9155027 14.1334572,18.8662835 13.9203092,18.7657578 C13.4013352,18.5212002 13.0727703,18.015935 13.0727703,17.4622197 L13.0727703,8.14497095 C13.0727703,7.59114578 13.4013352,7.08599043 13.9203092,6.8415427 C14.4395129,6.59676538 15.0585148,6.65521311 15.5171964,6.9926059 L21.855478,11.6510655 C22.2298651,11.9261653 22.4492146,12.3521086 22.4492146,12.8035404 C22.4493294,13.2550821 22.2299799,13.6810254 21.8555928,13.9561252 L21.8555928,13.9561252 Z" id="Shape"></path>
                </g>
            </g>
        </g>
    </g>
</svg>