<?xml version="1.0" encoding="UTF-8" standalone="no"?>
<svg width="43px" height="33px" viewBox="0 0 43 33" version="1.1" xmlns="http://www.w3.org/2000/svg" xmlns:xlink="http://www.w3.org/1999/xlink" xmlns:sketch="http://www.bohemiancoding.com/sketch/ns">
    <!-- Generator: Sketch 3.3.2 (12043) - http://www.bohemiancoding.com/sketch -->
    <title>Shape Copy</title>
    <desc>Created with Sketch.</desc>
    <defs></defs>
    <g id="Rede-Meio-Norte" stroke="none" stroke-width="1" fill="none" fill-rule="evenodd" sketch:type="MSPage">
        <g id="Program" sketch:type="MSArtboardGroup" transform="translate(-30.000000, -1266.000000)" fill="#D9D9D9">
            <g id="videoplayer5-copy-+-Shape-Copy" sketch:type="MSLayerGroup" transform="translate(30.000000, 1266.000000)">
                <path d="M21.5,12.9346432 C17.93745,12.9346432 15.05,15.6306245 15.05,18.9542502 C15.05,22.2790799 17.93745,24.9738573 21.5,24.9738573 C25.06169,24.9738573 27.95,22.2790799 27.95,18.9542502 C27.95,15.6306245 25.06169,12.9346432 21.5,12.9346432 L21.5,12.9346432 Z M38.7,6.91503617 L33.54,6.91503617 C32.8305,6.91503617 32.06596,6.40136304 31.84193,5.77291606 L30.50807,2.03714793 C30.28318,1.40910227 29.5195,0.895429133 28.81,0.895429133 L14.19,0.895429133 C13.4805,0.895429133 12.71596,1.40910227 12.49193,2.03754924 L11.15807,5.77331737 C10.93318,6.40136304 10.1695,6.91503617 9.46,6.91503617 L4.3,6.91503617 C1.935,6.91503617 0,8.72091828 0,10.9281075 L0,28.9869286 C0,31.1941179 1.935,33 4.3,33 L38.7,33 C41.065,33 43,31.1941179 43,28.9869286 L43,10.9281075 C43,8.72091828 41.065,6.91503617 38.7,6.91503617 L38.7,6.91503617 Z M21.5,28.9869286 C15.56299,28.9869286 10.75,24.4950979 10.75,18.9542502 C10.75,13.4138039 15.56299,8.92157185 21.5,8.92157185 C27.43615,8.92157185 32.25,13.4138039 32.25,18.9542502 C32.25,24.4950979 27.43615,28.9869286 21.5,28.9869286 L21.5,28.9869286 Z M37.195,13.7344483 C36.36424,13.7344483 35.69,13.1060014 35.69,12.3298734 C35.69,11.554548 36.36424,10.9252984 37.195,10.9252984 C38.02662,10.9252984 38.7,11.554548 38.7,12.3298734 C38.7,13.1060014 38.02619,13.7344483 37.195,13.7344483 L37.195,13.7344483 Z" id="Shape-Copy" sketch:type="MSShapeGroup"></path>
            </g>
        </g>
    </g>
</svg>