<?xml version="1.0" encoding="UTF-8" standalone="no"?>
<svg width="142px" height="143px" viewBox="0 0 142 143" version="1.1" xmlns="http://www.w3.org/2000/svg" xmlns:xlink="http://www.w3.org/1999/xlink" xmlns:sketch="http://www.bohemiancoding.com/sketch/ns">
    <!-- Generator: Sketch 3.3.2 (12043) - http://www.bohemiancoding.com/sketch -->
    <title>Shape</title>
    <desc>Created with Sketch.</desc>
    <defs></defs>
    <g id="Rede-Meio-Norte" stroke="none" stroke-width="1" fill="none" fill-rule="evenodd" sketch:type="MSPage">
        <g id="Poll-(ok)" sketch:type="MSArtboardGroup" transform="translate(-304.000000, -610.000000)" fill="#84D672">
            <path d="M375.019106,610.5 C335.927964,610.5 304.25,642.177964 304.25,681.307318 C304.25,720.398461 335.927964,752.038212 375.019106,752.038212 C414.110248,752.038212 445.75,720.398461 445.75,681.307318 C445.75,642.177964 414.110248,610.5 375.019106,610.5 L375.019106,610.5 Z M414.033824,665.602079 L363.364367,715.965839 L336.042601,689.293681 C332.48886,685.816365 332.450648,680.122738 335.927964,676.530786 C339.40528,672.977046 345.137119,672.900621 348.690859,676.416149 L363.24973,690.669322 L401.347353,652.76276 C404.862881,649.247232 410.556508,649.247232 414.072036,652.800972 C417.625776,656.354712 417.549352,662.048339 414.033824,665.602079 L414.033824,665.602079 Z" id="Shape" sketch:type="MSShapeGroup"></path>
        </g>
    </g>
</svg>