<?xml version="1.0" encoding="UTF-8" standalone="no"?>
<svg width="145px" height="145px" viewBox="0 0 145 145" version="1.1" xmlns="http://www.w3.org/2000/svg" xmlns:xlink="http://www.w3.org/1999/xlink" xmlns:sketch="http://www.bohemiancoding.com/sketch/ns">
    <!-- Generator: Sketch 3.3.2 (12043) - http://www.bohemiancoding.com/sketch -->
    <title>Shape</title>
    <desc>Created with Sketch.</desc>
    <defs></defs>
    <g id="Rede-Meio-Norte" stroke="none" stroke-width="1" fill="none" fill-rule="evenodd" sketch:type="MSPage">
        <g id="Poll-(not-found)" sketch:type="MSArtboardGroup" transform="translate(-302.000000, -608.000000)" fill="#FF807D">
            <path d="M374.75,608 C334.847357,608 302.5,640.347357 302.5,680.25 C302.5,720.152643 334.847357,752.5 374.75,752.5 C414.652643,752.5 447,720.152643 447,680.25 C447,640.347357 414.652643,608 374.75,608 L374.75,608 Z M374.75,729.953577 C368.610224,729.953577 363.632347,724.975699 363.632347,718.835923 C363.632347,712.696148 368.610224,707.71827 374.75,707.71827 C380.889776,707.71827 385.867653,712.696148 385.867653,718.835923 C385.867653,724.975699 380.889776,729.953577 374.75,729.953577 L374.75,729.953577 Z M385.867653,688.060372 C385.867653,694.200148 380.889776,699.1795 374.75,699.1795 C368.610224,699.1795 363.632347,694.200148 363.632347,688.060372 L363.632347,641.664077 C363.632347,635.524301 368.610224,630.546423 374.75,630.546423 C380.889776,630.546423 385.867653,635.524301 385.867653,641.664077 L385.867653,688.060372 L385.867653,688.060372 Z" id="Shape" sketch:type="MSShapeGroup"></path>
        </g>
    </g>
</svg>